<svg width="98" height="25" viewBox="0 0 98 25" fill="none" xmlns="http://www.w3.org/2000/svg"><path d="M87.1927 8.13877C87.1704 7.96167 87.1369 7.74033 87.0921 7.4747C87.0698 7.18694 87.0363 6.92131 86.9915 6.67781C86.9692 6.41218 86.9467 6.19083 86.9244 6.01374C86.9021 5.83665 86.8909 5.74811 86.8909 5.74811H86.6226L82.7992 6.87703C82.6873 7.05413 82.4974 7.14266 82.2291 7.14266C81.983 7.14266 81.7931 7.14266 81.6589 7.14266C81.3458 7.14266 81.0217 7.00985 80.6863 6.74422C80.3732 6.45646 80.2168 6.14655 80.2168 5.81452C80.2168 5.57102 80.2951 5.33859 80.4516 5.11724C80.6305 4.87374 80.8428 4.70772 81.0888 4.61919L86.4884 2.92581C86.5555 2.68231 86.6784 2.43883 86.8573 2.19533C87.0586 1.9297 87.3156 1.79689 87.6287 1.79689C87.9418 1.79689 88.1989 1.87437 88.4001 2.02931C88.6236 2.18425 88.8696 2.30602 89.1379 2.39455C89.3391 2.37242 89.6745 2.30602 90.1441 2.19533C90.6136 2.08464 91.1054 1.97398 91.6197 1.86329C92.1563 1.73048 92.6594 1.60874 93.1289 1.49805C93.5985 1.38737 93.9226 1.30991 94.1015 1.26563C94.3698 1.22135 94.5711 1.16602 94.7052 1.09961C94.8394 1.0332 95.0519 1 95.3425 1C95.7226 1 96.1138 1.11069 96.5163 1.33204C96.9187 1.55338 97.12 1.88542 97.12 2.32814C97.12 2.6159 97.0194 2.87048 96.8181 3.09183C96.6169 3.29105 96.3709 3.42386 96.0803 3.49027L89.7081 5.08404V5.38287C89.7081 6.06907 89.7639 6.74422 89.8758 7.40829C90.0099 8.07236 90.0547 8.73643 90.0099 9.4005L91.1502 19.6604V20.3909C91.1502 20.6565 91.1389 20.9333 91.1167 21.221C91.1167 21.4866 91.0719 21.7302 90.9825 21.9515C90.9154 22.1727 90.7925 22.3611 90.6136 22.5159C90.4346 22.6487 90.1663 22.7151 89.8087 22.7151C89.5404 22.7151 89.2498 22.6044 88.9367 22.3831C88.6461 22.1618 88.4894 21.8962 88.4672 21.5862L87.1927 8.4044V8.13877Z" fill="#FFBDBF"></path><path d="M6.26547 23.1136C6.6232 22.6267 7.0145 22.2615 7.4393 22.0179C7.88649 21.7743 8.33364 21.5751 8.78083 21.4203C9.25036 21.2654 9.7087 21.1214 10.1559 20.9886C10.6254 20.8338 11.0838 20.5902 11.5309 20.2581C11.7769 20.1253 12.1234 19.9261 12.5706 19.6605C13.0178 19.3948 13.4538 19.1072 13.8786 18.7972C14.3258 18.4651 14.7059 18.1443 15.0189 17.8343C15.3543 17.5243 15.522 17.2587 15.522 17.0374C15.522 17.0153 15.5108 17.0042 15.4884 17.0042C15.4437 17.0042 15.4214 16.993 15.4214 16.971L15.3543 16.9046C15.2425 16.8602 15.0636 16.805 14.8177 16.7386C14.5717 16.6722 14.4264 16.6278 14.3817 16.6057C11.4974 16.2737 9.17209 15.986 7.40577 15.7425C5.66179 15.4768 4.30908 15.2 3.34766 14.9124C2.4086 14.6247 1.78256 14.2926 1.46953 13.9163C1.15651 13.5399 1 13.0641 1 12.4885C1 12.2672 1.04472 12.0236 1.13415 11.758C1.22359 11.4924 1.3242 11.2268 1.43599 10.9611C1.57015 10.6955 1.7043 10.452 1.83845 10.2307C1.9726 10.0093 2.09558 9.83221 2.20737 9.6994C2.56511 9.25668 3.03464 8.85823 3.61597 8.50407C4.1973 8.14991 4.82334 7.84 5.4941 7.57437C6.16486 7.30874 6.83562 7.07632 7.50638 6.8771C8.19949 6.67787 8.82555 6.50078 9.38451 6.34584C10.0105 6.30156 10.6366 6.15769 11.2626 5.91419C11.9111 5.64856 12.5483 5.47147 13.1743 5.38293C13.4873 5.38293 13.7445 5.50467 13.9457 5.74817C14.1469 5.99168 14.2475 6.24623 14.2475 6.51186C14.2475 6.88817 14.1693 7.17593 14.0128 7.37515C13.8786 7.55224 13.6886 7.69611 13.4426 7.8068C13.219 7.89533 12.9619 7.97281 12.6712 8.03922C12.3806 8.0835 12.0899 8.13883 11.7992 8.20524C11.6204 8.24952 11.3744 8.31593 11.0614 8.40446C10.7484 8.47087 10.4354 8.54835 10.1223 8.63688C9.80932 8.72542 9.52985 8.8029 9.2839 8.86931C9.03794 8.93572 8.89263 8.98 8.8479 9.00212C8.15479 9.28988 7.49519 9.56659 6.86916 9.83221C6.26547 10.0757 5.72886 10.3303 5.25933 10.5959C4.81215 10.8615 4.45442 11.1493 4.18611 11.4592C3.94016 11.7469 3.82838 12.0679 3.85073 12.4221V12.4553C4.07431 12.7652 4.57738 12.9977 5.35995 13.1526C6.14251 13.3074 7.0592 13.4402 8.11006 13.551C9.18328 13.6618 10.3012 13.7723 11.4639 13.883C12.6489 13.9938 13.7333 14.1598 14.7171 14.3811C15.7008 14.6024 16.5169 14.9012 17.1653 15.2776C17.8137 15.654 18.1491 16.1629 18.1715 16.805C18.1715 17.0485 18.1156 17.3362 18.0038 17.6683C17.9144 18.0003 17.7802 18.2548 17.6013 18.4319C17.0424 19.0517 16.3716 19.6937 15.589 20.3577C14.8289 21.0218 14.0016 21.6415 13.1072 22.2171C12.2129 22.7705 11.285 23.2465 10.3236 23.6449C9.38451 24.0213 8.45663 24.2426 7.53992 24.309C7.22689 24.309 6.93623 24.1982 6.66793 23.9769C6.39962 23.7334 6.26547 23.4457 6.26547 23.1136Z" fill="#FFBDBF"></path><path d="M40.6086 22.4495C40.6086 22.2503 40.6757 22.0731 40.8098 21.9182C40.9662 21.7634 41.0446 21.5974 41.0446 21.4202C41.0446 21.3758 40.9998 21.3206 40.9104 21.2542C40.8211 21.1878 40.765 21.1434 40.7427 21.1214C40.5192 20.7893 40.3961 20.4129 40.3738 19.9924C40.3515 19.5719 40.3403 19.1735 40.3403 18.7971C40.3403 16.7605 40.3515 14.7463 40.3738 12.7541C40.3961 10.7618 40.4073 8.7475 40.4073 6.711C40.1839 6.711 39.9714 6.76633 39.7701 6.87702C39.5689 6.96556 39.3564 7.07624 39.1329 7.20906C38.9094 7.31975 38.6746 7.43041 38.4286 7.54109C38.1826 7.62963 37.9143 7.67391 37.6237 7.67391H37.0871C37.0423 7.6075 36.9307 7.55217 36.7517 7.50789C36.5727 7.44148 36.4834 7.364 36.4834 7.27547V6.27936C36.5953 6.21295 36.6846 6.12442 36.7517 6.01373C36.841 5.88091 36.9081 5.77023 36.9529 5.68169L40.3403 4.02151L40.4744 3.8555C40.4296 3.23571 40.4632 2.73765 40.575 2.36134C40.6869 1.98502 41.0781 1.79688 41.7489 1.79688C41.9278 1.79688 42.1178 1.83008 42.319 1.89649C42.5425 1.96289 42.7437 2.05143 42.9227 2.16211C43.1239 2.2728 43.2694 2.41667 43.3587 2.59376C43.4706 2.77086 43.5041 2.97008 43.4593 3.19143C44.5773 3.23571 45.6841 3.32424 46.7796 3.45705C47.8751 3.56774 48.8589 3.83337 49.7309 4.25394C50.6029 4.65238 51.3072 5.25005 51.8438 6.04693C52.4027 6.84382 52.6823 7.93954 52.6823 9.33409C52.6823 10.5958 52.4362 11.8576 51.9444 13.1193C51.4526 14.381 50.7483 15.4656 49.8315 16.3732L43.4593 22.6487C43.1462 22.9587 42.8779 23.18 42.6544 23.3128C42.4532 23.4456 42.1513 23.512 41.7489 23.512C41.4135 23.512 41.1339 23.4236 40.9104 23.2464C40.7092 23.0472 40.6086 22.7815 40.6086 22.4495ZM43.4593 19.4612H43.3252L43.5935 19.2952C43.6157 19.2731 43.6941 19.2067 43.8282 19.0959C43.9846 18.9631 44.1523 18.8192 44.3313 18.6643C44.5103 18.4871 44.6889 18.3211 44.8679 18.1662C45.0469 18.0114 45.192 17.8786 45.3039 17.7678C45.8182 17.2365 46.3548 16.6721 46.9137 16.0744C47.4951 15.4767 48.0205 14.8459 48.49 14.1818C48.9595 13.4957 49.3397 12.7873 49.6303 12.0568C49.9434 11.3042 50.0998 10.5183 50.0998 9.69933C50.0998 8.92457 49.9544 8.27157 49.6638 7.74032C49.3733 7.18693 48.9818 6.74421 48.49 6.41217C48.0205 6.05801 47.4616 5.80343 46.8131 5.64849C46.1646 5.49355 45.4716 5.41606 44.7338 5.41606C44.6667 5.41606 44.4655 5.43819 44.1301 5.48247C43.817 5.5046 43.5935 5.57101 43.4593 5.68169V19.4612Z" fill="#FFBDBF"></path><path d="M17.5677 18.4319C17.5901 18.2991 17.5901 17.945 17.5677 17.3694C17.5454 16.7937 17.5342 16.0856 17.5342 15.2443C17.5565 14.381 17.5789 13.4402 17.6013 12.422C17.646 11.4038 17.7242 10.3745 17.836 9.33409C17.9702 8.2937 18.1491 7.29759 18.3726 6.34576C18.6186 5.37178 18.9316 4.53064 19.3117 3.82229C19.4458 3.22463 19.77 2.81511 20.2843 2.59376C20.7986 2.35026 21.5252 2.20639 22.4643 2.16211C23.068 2.16211 23.5822 2.31705 24.007 2.62696C24.4318 2.93687 24.7896 3.32424 25.0802 3.78909C25.3933 4.23181 25.6616 4.71879 25.8852 5.25005C26.1087 5.7813 26.31 6.25723 26.4888 6.6778V6.84382C26.6453 7.28654 26.7571 7.95061 26.8242 8.83603C26.9136 9.69933 26.9696 10.6179 26.9919 11.5919C27.0366 12.5438 27.059 13.4625 27.059 14.3478C27.059 15.2332 27.059 15.9084 27.059 16.3732C27.059 17.0373 26.9696 17.8342 26.7907 18.7639C26.6118 19.6716 26.3211 20.5348 25.9187 21.3538C25.5386 22.1727 25.0355 22.87 24.4095 23.4456C23.7834 24.0212 23.0344 24.3089 22.1624 24.3089C21.4246 24.3089 20.765 24.1208 20.1837 23.7444C19.6247 23.368 19.144 22.8923 18.7415 22.3167C18.3614 21.719 18.0708 21.077 17.8696 20.3909C17.6683 19.7048 17.5677 19.0516 17.5677 18.4319ZM20.8209 20.6565C20.8656 20.9001 20.9886 21.1546 21.1898 21.4202C21.4134 21.6638 21.6705 21.7854 21.9612 21.7854H22.2295C23.1686 20.9442 23.7834 19.9813 24.0741 18.8967C24.3648 17.7898 24.5101 16.6277 24.5101 15.4103C24.5101 15.1227 24.4989 14.6799 24.4766 14.0822C24.4542 13.4845 24.4095 12.8205 24.3424 12.09C24.2977 11.3374 24.2306 10.5515 24.1412 9.73253C24.0517 8.91352 23.9399 8.14983 23.8058 7.44148C23.6716 6.711 23.5151 6.08014 23.3363 5.54888C23.1574 5.01762 22.945 4.65238 22.699 4.45316C22.6767 4.47529 22.6432 4.51957 22.5984 4.58597C22.5761 4.65238 22.5649 4.69666 22.5649 4.71879C22.0954 5.29433 21.6705 6.08014 21.2904 7.07624C20.9103 8.07235 20.6197 9.2566 20.4185 10.629C20.2396 11.9793 20.1613 13.5066 20.1837 15.2111C20.2284 16.8933 20.4408 18.7087 20.8209 20.6565ZM28.9707 19.1623C28.9707 17.4578 28.9929 15.7644 29.0377 14.0822C29.1048 12.3999 29.1383 10.6954 29.1383 8.96885C29.1383 7.97274 29.0825 6.97663 28.9707 5.98052C28.8813 4.98442 28.8365 3.98831 28.8365 2.9922C28.8365 2.68229 28.9258 2.41667 29.1048 2.19532C29.306 1.97397 29.5631 1.86328 29.8762 1.86328C30.4128 1.86328 30.8152 1.97397 31.0835 2.19532C31.3519 2.41667 31.5418 2.69337 31.6537 3.02541C31.7656 3.35744 31.8214 3.73376 31.8214 4.15433C31.8214 4.5749 31.8214 4.98442 31.8214 5.38286C31.8214 5.47139 31.8214 5.69277 31.8214 6.04693C31.8437 6.40109 31.8662 6.78849 31.8885 7.20906C31.9107 7.6075 31.922 7.98382 31.922 8.33798C31.9443 8.69214 31.9555 8.91352 31.9555 9.00205V10.0978C31.9555 11.5366 31.9333 12.9644 31.8885 14.381C31.8437 15.7976 31.8214 17.2365 31.8214 18.6975V20.092C31.8214 20.2028 31.8327 20.3577 31.8549 20.5569C31.8997 20.7341 31.9333 20.8225 31.9555 20.8225H32.2238L40.1724 17.7014C40.3513 17.5465 40.5077 17.469 40.6419 17.469C40.776 17.4469 40.9325 17.4358 41.1114 17.4358C41.2233 17.4358 41.3685 17.4469 41.5474 17.469C41.7264 17.469 41.8941 17.5022 42.0505 17.5686C42.2294 17.6129 42.3746 17.6902 42.4865 17.801C42.6206 17.8895 42.6877 18.0334 42.6877 18.2326C42.6877 18.7419 42.4081 19.1844 41.8493 19.5608C41.1337 19.9372 40.3959 20.2913 39.6357 20.6233C38.8756 20.9333 38.1043 21.1878 37.3216 21.387L37.1539 21.5198C36.0807 21.8075 35.0746 22.2282 34.1355 22.7815C33.2187 23.3348 32.2574 23.844 31.2512 24.3089H30.9494C30.3457 24.3089 29.8984 24.1097 29.6079 23.7112C29.3173 23.3128 29.1271 22.8479 29.0377 22.3167C28.9484 21.7634 28.9148 21.1989 28.9371 20.6233C28.9594 20.0256 28.9707 19.5387 28.9707 19.1623Z" fill="#FFBDBF"></path><path d="M59.1549 17.635C59.1771 17.5022 59.1771 17.1481 59.1549 16.5725C59.1326 15.9969 59.1213 15.2887 59.1213 14.4474C59.1436 13.5842 59.1661 12.6434 59.1884 11.6251C59.2332 10.6069 59.3113 9.5776 59.4232 8.53721C59.5573 7.49682 59.7363 6.50071 59.9598 5.54889C60.2058 4.5749 60.5187 3.73377 60.8989 3.02541C61.033 2.42775 61.3571 2.01823 61.8715 1.79688C62.3858 1.55338 63.1124 1.40951 64.0514 1.36523C64.6551 1.36523 65.1695 1.52018 65.5942 1.83008C66.0189 2.13999 66.3768 2.52736 66.6674 2.99221C66.9805 3.43493 67.2488 3.92191 67.4723 4.45317C67.6958 4.98442 67.897 5.46035 68.076 5.88092V6.04694C68.2324 6.48966 68.3443 7.15373 68.4114 8.03915C68.5007 8.90245 68.5568 9.82107 68.5791 10.7951C68.6239 11.7469 68.6461 12.6655 68.6461 13.5509C68.6461 14.4363 68.6461 15.1115 68.6461 15.5764C68.6461 16.2404 68.5568 17.0373 68.3778 17.967C68.1989 18.8747 67.9083 19.738 67.5058 20.5569C67.1257 21.3758 66.6226 22.0731 65.9966 22.6487C65.3707 23.2243 64.6216 23.512 63.7496 23.512C63.0118 23.512 62.3523 23.324 61.7708 22.9476C61.212 22.5712 60.7312 22.0954 60.3287 21.5198C59.9485 20.9221 59.6579 20.2801 59.4567 19.594C59.2555 18.9079 59.1549 18.2547 59.1549 17.635ZM62.4081 19.8596C62.4529 20.1032 62.5758 20.3577 62.777 20.6233C63.0005 20.8669 63.2578 20.9885 63.5484 20.9885H63.8167C64.7557 20.1473 65.3707 19.1844 65.6613 18.0998C65.9518 16.993 66.0973 15.8308 66.0973 14.6135C66.0973 14.3258 66.086 13.883 66.0637 13.2853C66.0414 12.6877 65.9966 12.0236 65.9296 11.2931C65.8848 10.5405 65.8177 9.75466 65.7283 8.93565C65.639 8.11664 65.5271 7.35296 65.393 6.6446C65.2588 5.91412 65.1024 5.28326 64.9234 4.752C64.7445 4.22074 64.5322 3.8555 64.2862 3.65628C64.2639 3.67841 64.2304 3.72269 64.1856 3.7891C64.1633 3.8555 64.152 3.89978 64.152 3.92191C63.6825 4.49745 63.2578 5.28326 62.8776 6.27936C62.4974 7.27547 62.2068 8.45972 62.0056 9.83215C61.8267 11.1824 61.7486 12.7098 61.7708 14.4142C61.8156 16.0965 62.0279 17.9118 62.4081 19.8596Z" fill="#FFBDBF"></path><path d="M78.8418 14.5803C78.5957 15.0451 78.2939 15.5652 77.9363 16.1408C77.6009 16.7164 77.1984 17.2697 76.7289 17.801C76.2816 18.3102 75.7898 18.7419 75.2532 19.0959C74.7389 19.45 74.18 19.6272 73.5763 19.6272C72.8162 19.6272 72.2125 19.4059 71.7653 18.9631C71.318 18.5203 70.9716 17.9782 70.7256 17.3362C70.5021 16.6721 70.3567 15.986 70.2896 15.2775C70.2225 14.5471 70.189 13.8941 70.189 13.3185V12.4552C70.2112 12.2781 70.2338 12.0125 70.256 11.6583C70.3008 11.3042 70.3454 10.9057 70.3902 10.463C70.4573 9.99816 70.5131 9.52224 70.5579 9.03526C70.6027 8.52613 70.6472 8.05023 70.692 7.60751C70.7591 7.14266 70.8039 6.73314 70.8262 6.37897C70.871 6.02481 70.9045 5.75918 70.9268 5.58209C70.8375 5.36074 70.8039 5.13936 70.8262 4.91802C70.871 4.67451 70.9491 4.46424 71.061 4.28715C71.1951 4.08793 71.3628 3.93298 71.564 3.8223C71.7653 3.68948 71.9888 3.62308 72.2348 3.62308C72.3019 3.62308 72.4137 3.6452 72.5702 3.68948C72.7491 3.73376 72.9278 3.80017 73.1068 3.8887C73.2857 3.97724 73.4422 4.07685 73.5763 4.18754C73.7105 4.27607 73.7775 4.36463 73.7775 4.45317V5.7149C73.4644 8.10556 73.2632 10.0092 73.1739 11.4259C73.0845 12.8426 73.051 13.9494 73.0732 14.7463C73.0955 15.5211 73.1626 16.0524 73.2745 16.34C73.3863 16.6277 73.498 16.8269 73.6098 16.9377C73.8781 17.0485 74.1352 17.0817 74.3812 17.0373C74.6495 16.9709 74.9626 16.7605 75.3203 16.4065C75.6779 16.0524 76.1029 15.51 76.5947 14.7795C77.1091 14.027 77.7238 13.0308 78.4393 11.7912C78.4841 11.7247 78.5287 11.603 78.5735 11.4259C78.6405 11.2488 78.6854 11.1271 78.7076 11.0607C78.6628 9.59972 78.6518 8.12769 78.6741 6.6446C78.7189 5.16152 78.7747 3.68948 78.8418 2.22853C78.9311 2.00718 79.0765 1.83008 79.2778 1.69727C79.479 1.56445 79.6915 1.49805 79.915 1.49805C80.0043 1.49805 80.1385 1.53125 80.3175 1.59766C80.4964 1.66406 80.6751 1.76368 80.8541 1.89649C81.033 2.00718 81.1894 2.12891 81.3236 2.26173C81.4577 2.39454 81.5248 2.52736 81.5248 2.66017V12.4552C81.6812 13.4513 81.8044 14.4586 81.8937 15.4768C81.9831 16.4729 82.1062 17.469 82.2627 18.4651C82.2627 18.5758 82.2849 18.8083 82.3297 19.1624C82.3968 19.4944 82.4639 19.8596 82.531 20.2581C82.598 20.6565 82.6538 21.0218 82.6987 21.3538C82.7657 21.6858 82.8105 21.8962 82.8328 21.9847V22.3831C82.8328 23.18 82.3968 23.6116 81.5248 23.678C81.1446 23.7224 80.8205 23.5564 80.5522 23.18C80.3062 22.8259 80.105 22.3499 79.9485 21.7522C79.7921 21.1766 79.658 20.5237 79.5461 19.7932C79.4567 19.0627 79.3784 18.3543 79.3113 17.6682C79.2442 16.9821 79.1772 16.3621 79.1101 15.8088C79.043 15.2332 78.9537 14.8238 78.8418 14.5803Z" fill="#FFBDBF"></path><path d="M86.1927 7.13877C86.1704 6.96167 86.1369 6.74033 86.0921 6.4747C86.0698 6.18694 86.0363 5.92131 85.9915 5.67781C85.9692 5.41218 85.9467 5.19083 85.9244 5.01374C85.9021 4.83665 85.8909 4.74811 85.8909 4.74811H85.6226L81.7992 5.87703C81.6873 6.05413 81.4974 6.14266 81.2291 6.14266C80.983 6.14266 80.7931 6.14266 80.6589 6.14266C80.3458 6.14266 80.0217 6.00985 79.6863 5.74422C79.3732 5.45646 79.2168 5.14655 79.2168 4.81452C79.2168 4.57102 79.2951 4.33859 79.4516 4.11724C79.6305 3.87374 79.8428 3.70772 80.0888 3.61919L85.4884 1.92581C85.5555 1.68231 85.6784 1.43883 85.8573 1.19533C86.0586 0.9297 86.3156 0.796886 86.6287 0.796886C86.9418 0.796886 87.1989 0.87437 87.4001 1.02931C87.6236 1.18425 87.8696 1.30602 88.1379 1.39455C88.3391 1.37242 88.6745 1.30602 89.1441 1.19533C89.6136 1.08464 90.1054 0.97398 90.6197 0.863293C91.1563 0.730479 91.6594 0.608741 92.1289 0.498054C92.5985 0.387366 92.9226 0.309909 93.1015 0.265629C93.3698 0.221348 93.5711 0.166018 93.7052 0.0996107C93.8394 0.0332036 94.0519 0 94.3425 0C94.7226 0 95.1138 0.110687 95.5163 0.332036C95.9187 0.553384 96.12 0.88542 96.12 1.32814C96.12 1.6159 96.0194 1.87048 95.8181 2.09183C95.6169 2.29105 95.3709 2.42386 95.0803 2.49027L88.7081 4.08404V4.38287C88.7081 5.06907 88.7639 5.74422 88.8758 6.40829C89.0099 7.07236 89.0547 7.73643 89.0099 8.4005L90.1502 18.6604V19.3909C90.1502 19.6565 90.1389 19.9333 90.1167 20.221C90.1167 20.4866 90.0719 20.7302 89.9825 20.9515C89.9154 21.1727 89.7925 21.3611 89.6136 21.5159C89.4346 21.6487 89.1663 21.7151 88.8087 21.7151C88.5404 21.7151 88.2498 21.6044 87.9367 21.3831C87.6461 21.1618 87.4894 20.8962 87.4672 20.5862L86.1927 7.4044V7.13877Z" fill="#EA3337"></path><path d="M5.26547 22.1136C5.6232 21.6267 6.0145 21.2615 6.4393 21.0179C6.88649 20.7743 7.33364 20.5751 7.78083 20.4203C8.25036 20.2654 8.7087 20.1214 9.15588 19.9886C9.62542 19.8338 10.0838 19.5902 10.5309 19.2581C10.7769 19.1253 11.1234 18.9261 11.5706 18.6605C12.0178 18.3948 12.4538 18.1072 12.8786 17.7972C13.3258 17.4651 13.7059 17.1443 14.0189 16.8343C14.3543 16.5243 14.522 16.2587 14.522 16.0374C14.522 16.0153 14.5108 16.0042 14.4884 16.0042C14.4437 16.0042 14.4214 15.993 14.4214 15.971L14.3543 15.9046C14.2425 15.8602 14.0636 15.805 13.8177 15.7386C13.5717 15.6722 13.4264 15.6278 13.3817 15.6057C10.4974 15.2737 8.17209 14.986 6.40577 14.7425C4.66179 14.4768 3.30908 14.2 2.34766 13.9124C1.4086 13.6247 0.782555 13.2926 0.469533 12.9163C0.15651 12.5399 0 12.0641 0 11.4885C0 11.2672 0.0447183 11.0236 0.134152 10.758C0.223586 10.4924 0.3242 10.2268 0.435995 9.96114C0.570147 9.69551 0.704299 9.452 0.838451 9.23066C0.972603 9.00931 1.09558 8.83221 1.20737 8.6994C1.56511 8.25668 2.03464 7.85823 2.61597 7.50407C3.1973 7.14991 3.82334 6.84 4.4941 6.57437C5.16486 6.30874 5.83562 6.07632 6.50638 5.8771C7.19949 5.67787 7.82555 5.50078 8.38451 5.34584C9.01054 5.30156 9.63661 5.15769 10.2626 4.91419C10.9111 4.64856 11.5483 4.47147 12.1743 4.38293C12.4873 4.38293 12.7445 4.50467 12.9457 4.74817C13.1469 4.99168 13.2475 5.24623 13.2475 5.51186C13.2475 5.88817 13.1693 6.17593 13.0128 6.37515C12.8786 6.55224 12.6886 6.69611 12.4426 6.8068C12.219 6.89533 11.9619 6.97281 11.6712 7.03922C11.3806 7.0835 11.0899 7.13883 10.7992 7.20524C10.6204 7.24952 10.3744 7.31593 10.0614 7.40446C9.74838 7.47087 9.43538 7.54835 9.12235 7.63688C8.80932 7.72542 8.52985 7.8029 8.2839 7.86931C8.03794 7.93572 7.89263 7.98 7.8479 8.00212C7.15479 8.28988 6.49519 8.56659 5.86916 8.83221C5.26547 9.07572 4.72886 9.33027 4.25933 9.5959C3.81215 9.86152 3.45442 10.1493 3.18611 10.4592C2.94016 10.7469 2.82838 11.0679 2.85073 11.4221V11.4553C3.07431 11.7652 3.57738 11.9977 4.35995 12.1526C5.14251 12.3074 6.0592 12.4402 7.11006 12.551C8.18328 12.6618 9.30123 12.7723 10.4639 12.883C11.6489 12.9938 12.7333 13.1598 13.7171 13.3811C14.7008 13.6024 15.5169 13.9012 16.1653 14.2776C16.8137 14.654 17.1491 15.1629 17.1715 15.805C17.1715 16.0485 17.1156 16.3362 17.0038 16.6683C16.9144 17.0003 16.7802 17.2548 16.6013 17.4319C16.0424 18.0517 15.3716 18.6937 14.589 19.3577C13.8289 20.0218 13.0016 20.6415 12.1072 21.2171C11.2129 21.7705 10.285 22.2465 9.32358 22.6449C8.38451 23.0213 7.45663 23.2426 6.53992 23.309C6.22689 23.309 5.93623 23.1982 5.66793 22.9769C5.39962 22.7334 5.26547 22.4457 5.26547 22.1136Z" fill="#EA3337"></path><path d="M39.6086 21.4495C39.6086 21.2503 39.6757 21.0731 39.8098 20.9182C39.9662 20.7634 40.0446 20.5974 40.0446 20.4202C40.0446 20.3758 39.9998 20.3206 39.9104 20.2542C39.8211 20.1878 39.765 20.1434 39.7427 20.1214C39.5192 19.7893 39.3961 19.4129 39.3738 18.9924C39.3515 18.5719 39.3403 18.1735 39.3403 17.7971C39.3403 15.7605 39.3515 13.7463 39.3738 11.7541C39.3961 9.76184 39.4073 7.7475 39.4073 5.711C39.1839 5.711 38.9714 5.76633 38.7701 5.87702C38.5689 5.96556 38.3564 6.07624 38.1329 6.20906C37.9094 6.31975 37.6746 6.43041 37.4286 6.54109C37.1826 6.62963 36.9143 6.67391 36.6237 6.67391H36.0871C36.0423 6.6075 35.9307 6.55217 35.7517 6.50789C35.5727 6.44148 35.4834 6.364 35.4834 6.27547V5.27936C35.5953 5.21295 35.6846 5.12442 35.7517 5.01373C35.841 4.88091 35.9081 4.77023 35.9529 4.68169L39.3403 3.02151L39.4744 2.8555C39.4296 2.23571 39.4632 1.73765 39.575 1.36134C39.6869 0.98502 40.0781 0.796875 40.7489 0.796875C40.9278 0.796875 41.1178 0.830079 41.319 0.896486C41.5425 0.962893 41.7437 1.05143 41.9227 1.16211C42.1239 1.2728 42.2694 1.41667 42.3587 1.59376C42.4706 1.77086 42.5041 1.97008 42.4593 2.19143C43.5773 2.23571 44.6841 2.32424 45.7796 2.45705C46.8751 2.56774 47.8589 2.83337 48.7309 3.25394C49.6029 3.65238 50.3072 4.25005 50.8438 5.04693C51.4027 5.84382 51.6823 6.93954 51.6823 8.33409C51.6823 9.59582 51.4362 10.8576 50.9444 12.1193C50.4526 13.381 49.7483 14.4656 48.8315 15.3732L42.4593 21.6487C42.1462 21.9587 41.8779 22.18 41.6544 22.3128C41.4532 22.4456 41.1513 22.512 40.7489 22.512C40.4135 22.512 40.1339 22.4236 39.9104 22.2464C39.7092 22.0472 39.6086 21.7815 39.6086 21.4495ZM42.4593 18.4612H42.3252L42.5935 18.2952C42.6157 18.2731 42.6941 18.2067 42.8282 18.0959C42.9846 17.9631 43.1523 17.8192 43.3313 17.6643C43.5103 17.4871 43.6889 17.3211 43.8679 17.1662C44.0469 17.0114 44.192 16.8786 44.3039 16.7678C44.8182 16.2365 45.3548 15.6721 45.9137 15.0744C46.4951 14.4767 47.0205 13.8459 47.49 13.1818C47.9595 12.4957 48.3397 11.7873 48.6303 11.0568C48.9434 10.3042 49.0998 9.51834 49.0998 8.69933C49.0998 7.92457 48.9544 7.27157 48.6638 6.74032C48.3733 6.18693 47.9818 5.74421 47.49 5.41217C47.0205 5.05801 46.4616 4.80343 45.8131 4.64849C45.1646 4.49355 44.4716 4.41606 43.7338 4.41606C43.6667 4.41606 43.4655 4.43819 43.1301 4.48247C42.817 4.5046 42.5935 4.57101 42.4593 4.68169V18.4612Z" fill="#EA3337"></path><path d="M16.5677 17.4319C16.5901 17.2991 16.5901 16.945 16.5677 16.3694C16.5454 15.7937 16.5342 15.0856 16.5342 14.2443C16.5565 13.381 16.5789 12.4402 16.6013 11.422C16.646 10.4038 16.7242 9.37447 16.836 8.33409C16.9702 7.2937 17.1491 6.29759 17.3726 5.34576C17.6186 4.37178 17.9316 3.53064 18.3117 2.82229C18.4458 2.22463 18.77 1.81511 19.2843 1.59376C19.7986 1.35026 20.5252 1.20639 21.4643 1.16211C22.068 1.16211 22.5822 1.31705 23.007 1.62696C23.4318 1.93687 23.7896 2.32424 24.0802 2.78909C24.3933 3.23181 24.6616 3.71879 24.8852 4.25005C25.1087 4.7813 25.31 5.25723 25.4888 5.6778V5.84382C25.6453 6.28654 25.7571 6.95061 25.8242 7.83603C25.9136 8.69933 25.9696 9.61795 25.9919 10.5919C26.0366 11.5438 26.059 12.4625 26.059 13.3478C26.059 14.2332 26.059 14.9084 26.059 15.3732C26.059 16.0373 25.9696 16.8342 25.7907 17.7639C25.6118 18.6716 25.3211 19.5348 24.9187 20.3538C24.5386 21.1727 24.0355 21.87 23.4095 22.4456C22.7834 23.0212 22.0344 23.3089 21.1624 23.3089C20.4246 23.3089 19.765 23.1208 19.1837 22.7444C18.6247 22.368 18.144 21.8923 17.7415 21.3167C17.3614 20.719 17.0708 20.077 16.8696 19.3909C16.6683 18.7048 16.5677 18.0516 16.5677 17.4319ZM19.8209 19.6565C19.8656 19.9001 19.9886 20.1546 20.1898 20.4202C20.4134 20.6638 20.6705 20.7854 20.9612 20.7854H21.2295C22.1686 19.9442 22.7834 18.9813 23.0741 17.8967C23.3648 16.7898 23.5101 15.6277 23.5101 14.4103C23.5101 14.1227 23.4989 13.6799 23.4766 13.0822C23.4542 12.4845 23.4095 11.8205 23.3424 11.09C23.2977 10.3374 23.2306 9.55154 23.1412 8.73253C23.0517 7.91352 22.9399 7.14983 22.8058 6.44148C22.6716 5.711 22.5151 5.08014 22.3363 4.54888C22.1574 4.01762 21.945 3.65238 21.699 3.45316C21.6767 3.47529 21.6432 3.51957 21.5984 3.58597C21.5761 3.65238 21.5649 3.69666 21.5649 3.71879C21.0954 4.29433 20.6705 5.08014 20.2904 6.07624C19.9103 7.07235 19.6197 8.2566 19.4185 9.62903C19.2396 10.9793 19.1613 12.5066 19.1837 14.2111C19.2284 15.8933 19.4408 17.7087 19.8209 19.6565ZM27.9707 18.1623C27.9707 16.4578 27.9929 14.7644 28.0377 13.0822C28.1048 11.3999 28.1383 9.69543 28.1383 7.96885C28.1383 6.97274 28.0825 5.97663 27.9707 4.98052C27.8813 3.98442 27.8365 2.98831 27.8365 1.9922C27.8365 1.68229 27.9258 1.41667 28.1048 1.19532C28.306 0.973969 28.5631 0.863281 28.8762 0.863281C29.4128 0.863281 29.8152 0.973969 30.0835 1.19532C30.3519 1.41667 30.5418 1.69337 30.6537 2.02541C30.7656 2.35744 30.8214 2.73376 30.8214 3.15433C30.8214 3.5749 30.8214 3.98442 30.8214 4.38286C30.8214 4.47139 30.8214 4.69277 30.8214 5.04693C30.8437 5.40109 30.8662 5.78849 30.8885 6.20906C30.9107 6.6075 30.922 6.98382 30.922 7.33798C30.9443 7.69214 30.9555 7.91352 30.9555 8.00205V9.09777C30.9555 10.5366 30.9333 11.9644 30.8885 13.381C30.8437 14.7976 30.8214 16.2365 30.8214 17.6975V19.092C30.8214 19.2028 30.8327 19.3577 30.8549 19.5569C30.8997 19.7341 30.9333 19.8225 30.9555 19.8225H31.2238L39.1724 16.7014C39.3513 16.5465 39.5077 16.469 39.6419 16.469C39.776 16.4469 39.9325 16.4358 40.1114 16.4358C40.2233 16.4358 40.3685 16.4469 40.5474 16.469C40.7264 16.469 40.8941 16.5022 41.0505 16.5686C41.2294 16.6129 41.3746 16.6902 41.4865 16.801C41.6206 16.8895 41.6877 17.0334 41.6877 17.2326C41.6877 17.7419 41.4081 18.1844 40.8493 18.5608C40.1337 18.9372 39.3959 19.2913 38.6357 19.6233C37.8756 19.9333 37.1043 20.1878 36.3216 20.387L36.1539 20.5198C35.0807 20.8075 34.0746 21.2282 33.1355 21.7815C32.2187 22.3348 31.2574 22.844 30.2512 23.3089H29.9494C29.3457 23.3089 28.8984 23.1097 28.6079 22.7112C28.3173 22.3128 28.1271 21.8479 28.0377 21.3167C27.9484 20.7634 27.9148 20.1989 27.9371 19.6233C27.9594 19.0256 27.9707 18.5387 27.9707 18.1623Z" fill="#EA3337"></path><path d="M58.1549 16.635C58.1771 16.5022 58.1771 16.1481 58.1549 15.5725C58.1326 14.9969 58.1213 14.2887 58.1213 13.4474C58.1436 12.5842 58.1661 11.6434 58.1884 10.6251C58.2332 9.60691 58.3113 8.5776 58.4232 7.53721C58.5573 6.49682 58.7363 5.50071 58.9598 4.54889C59.2058 3.5749 59.5187 2.73377 59.8989 2.02541C60.033 1.42775 60.3571 1.01823 60.8715 0.796881C61.3858 0.553379 62.1124 0.409515 63.0514 0.365234C63.6551 0.365234 64.1695 0.520176 64.5942 0.830084C65.0189 1.13999 65.3768 1.52736 65.6674 1.99221C65.9805 2.43493 66.2488 2.92191 66.4723 3.45317C66.6958 3.98442 66.897 4.46035 67.076 4.88092V5.04694C67.2324 5.48966 67.3443 6.15373 67.4114 7.03915C67.5007 7.90245 67.5568 8.82107 67.5791 9.79505C67.6239 10.7469 67.6461 11.6655 67.6461 12.5509C67.6461 13.4363 67.6461 14.1115 67.6461 14.5764C67.6461 15.2404 67.5568 16.0373 67.3778 16.967C67.1989 17.8747 66.9083 18.738 66.5058 19.5569C66.1257 20.3758 65.6226 21.0731 64.9966 21.6487C64.3707 22.2243 63.6216 22.512 62.7496 22.512C62.0118 22.512 61.3523 22.324 60.7708 21.9476C60.212 21.5712 59.7312 21.0954 59.3287 20.5198C58.9485 19.9221 58.6579 19.2801 58.4567 18.594C58.2555 17.9079 58.1549 17.2547 58.1549 16.635ZM61.4081 18.8596C61.4529 19.1032 61.5758 19.3577 61.777 19.6233C62.0005 19.8669 62.2578 19.9885 62.5484 19.9885H62.8167C63.7557 19.1473 64.3707 18.1844 64.6613 17.0998C64.9518 15.993 65.0973 14.8308 65.0973 13.6135C65.0973 13.3258 65.086 12.883 65.0637 12.2853C65.0414 11.6877 64.9966 11.0236 64.9296 10.2931C64.8848 9.5405 64.8177 8.75466 64.7283 7.93565C64.639 7.11664 64.5271 6.35296 64.393 5.6446C64.2588 4.91412 64.1024 4.28326 63.9234 3.752C63.7445 3.22074 63.5322 2.8555 63.2862 2.65628C63.2639 2.67841 63.2304 2.72269 63.1856 2.7891C63.1633 2.8555 63.152 2.89978 63.152 2.92191C62.6825 3.49745 62.2578 4.28326 61.8776 5.27936C61.4974 6.27547 61.2068 7.45972 61.0056 8.83215C60.8267 10.1824 60.7486 11.7098 60.7708 13.4142C60.8156 15.0965 61.0279 16.9118 61.4081 18.8596Z" fill="#EA3337"></path><path d="M77.8418 13.5803C77.5957 14.0451 77.2939 14.5652 76.9363 15.1408C76.6009 15.7164 76.1984 16.2697 75.7289 16.801C75.2816 17.3102 74.7898 17.7419 74.2532 18.0959C73.7389 18.45 73.18 18.6272 72.5763 18.6272C71.8162 18.6272 71.2125 18.4059 70.7653 17.9631C70.318 17.5203 69.9716 16.9782 69.7256 16.3362C69.5021 15.6721 69.3567 14.986 69.2896 14.2775C69.2225 13.5471 69.189 12.8941 69.189 12.3185V11.4552C69.2112 11.2781 69.2338 11.0125 69.256 10.6583C69.3008 10.3042 69.3454 9.90574 69.3902 9.46301C69.4573 8.99816 69.5131 8.52224 69.5579 8.03526C69.6027 7.52613 69.6472 7.05023 69.692 6.60751C69.7591 6.14266 69.8039 5.73314 69.8262 5.37897C69.871 5.02481 69.9045 4.75918 69.9268 4.58209C69.8375 4.36074 69.8039 4.13936 69.8262 3.91802C69.871 3.67451 69.9491 3.46424 70.061 3.28715C70.1951 3.08793 70.3628 2.93298 70.564 2.8223C70.7653 2.68948 70.9888 2.62308 71.2348 2.62308C71.3019 2.62308 71.4137 2.6452 71.5702 2.68948C71.7491 2.73376 71.9278 2.80017 72.1068 2.8887C72.2857 2.97724 72.4422 3.07685 72.5763 3.18754C72.7105 3.27607 72.7775 3.36463 72.7775 3.45317V4.7149C72.4644 7.10556 72.2632 9.00924 72.1739 10.4259C72.0845 11.8426 72.051 12.9494 72.0732 13.7463C72.0955 14.5211 72.1626 15.0524 72.2745 15.34C72.3863 15.6277 72.498 15.8269 72.6098 15.9377C72.8781 16.0485 73.1352 16.0817 73.3812 16.0373C73.6495 15.9709 73.9626 15.7605 74.3203 15.4065C74.6779 15.0524 75.1029 14.51 75.5947 13.7795C76.1091 13.027 76.7238 12.0308 77.4393 10.7912C77.4841 10.7247 77.5287 10.603 77.5735 10.4259C77.6405 10.2488 77.6854 10.1271 77.7076 10.0607C77.6628 8.59972 77.6518 7.12769 77.6741 5.6446C77.7189 4.16152 77.7747 2.68948 77.8418 1.22853C77.9311 1.00718 78.0765 0.830083 78.2778 0.697268C78.479 0.564454 78.6915 0.498047 78.915 0.498047C79.0043 0.498047 79.1385 0.53125 79.3175 0.597658C79.4964 0.664065 79.6751 0.763676 79.8541 0.89649C80.033 1.00718 80.1894 1.12891 80.3236 1.26173C80.4577 1.39454 80.5248 1.52736 80.5248 1.66017V11.4552C80.6812 12.4513 80.8044 13.4586 80.8937 14.4768C80.9831 15.4729 81.1062 16.469 81.2627 17.4651C81.2627 17.5758 81.2849 17.8083 81.3297 18.1624C81.3968 18.4944 81.4639 18.8596 81.531 19.2581C81.598 19.6565 81.6538 20.0218 81.6987 20.3538C81.7657 20.6858 81.8105 20.8962 81.8328 20.9847V21.3831C81.8328 22.18 81.3968 22.6116 80.5248 22.678C80.1446 22.7224 79.8205 22.5564 79.5522 22.18C79.3062 21.8259 79.105 21.3499 78.9485 20.7522C78.7921 20.1766 78.658 19.5237 78.5461 18.7932C78.4567 18.0627 78.3784 17.3543 78.3113 16.6682C78.2442 15.9821 78.1772 15.3621 78.1101 14.8088C78.043 14.2332 77.9537 13.8238 77.8418 13.5803Z" fill="#EA3337"></path></svg>